<?xml version="1.0" encoding="UTF-8"?>
<svg id="Capa_1" xmlns="http://www.w3.org/2000/svg" version="1.1" viewBox="0 0 1014.31 239.15">
  <!-- Generator: Adobe Illustrator 30.0.0, SVG Export Plug-In . SVG Version: 2.1.1 Build 123)  -->
  <defs>
    <style>
      .st0 {
        fill: #333;
      }
    </style>
  </defs>
  <g>
    <path class="st0" d="M57.73,215.94v2.98h-31.28v-45.34h30.31v2.98h-27.01v17.88h24.16v2.92h-24.16v18.59h27.98Z"/>
    <path class="st0" d="M81.92,217.53c-3-1.14-5.34-2.62-7.03-4.44l1.49-2.46c1.6,1.68,3.75,3.05,6.44,4.11,2.7,1.06,5.54,1.59,8.52,1.59,4.32,0,7.58-.82,9.78-2.46s3.3-3.78,3.3-6.41c0-2.03-.58-3.65-1.75-4.86s-2.61-2.14-4.34-2.79c-1.73-.65-4.06-1.32-7-2.01-3.33-.82-5.99-1.62-8-2.4s-3.71-1.98-5.12-3.6c-1.4-1.62-2.11-3.79-2.11-6.51,0-2.2.58-4.22,1.75-6.06,1.17-1.83,2.95-3.29,5.34-4.37,2.4-1.08,5.39-1.62,8.97-1.62,2.5,0,4.96.37,7.38,1.1,2.42.74,4.51,1.73,6.28,2.98l-1.23,2.66c-1.81-1.25-3.81-2.2-5.99-2.85-2.18-.65-4.33-.97-6.44-.97-4.19,0-7.36.84-9.52,2.53-2.16,1.68-3.24,3.86-3.24,6.54,0,2.03.58,3.65,1.75,4.86,1.17,1.21,2.61,2.14,4.34,2.78,1.73.65,4.08,1.34,7.06,2.07,3.32.82,5.98,1.62,7.97,2.4s3.68,1.95,5.09,3.53c1.4,1.58,2.1,3.7,2.1,6.38,0,2.2-.59,4.21-1.78,6.02s-3.01,3.26-5.47,4.34-5.48,1.62-9.07,1.62c-3.33,0-6.49-.57-9.49-1.72l.02.02Z"/>
    <path class="st0" d="M136.68,176.56h-16.32v-2.98h35.95v2.98h-16.32v42.36h-3.3v-42.36h-.01Z"/>
    <path class="st0" d="M177.65,214.26c-3.17-3.32-4.76-8.18-4.76-14.57v-26.1h3.3v25.97c0,5.57,1.27,9.74,3.82,12.5s6.24,4.15,11.08,4.15,8.46-1.38,11.01-4.15c2.55-2.76,3.82-6.93,3.82-12.5v-25.97h3.3v26.1c0,6.39-1.6,11.25-4.79,14.57-3.2,3.33-7.66,4.99-13.41,4.99s-10.2-1.66-13.38-4.99h0Z"/>
    <path class="st0" d="M234.35,173.58h17.94c4.71,0,8.88.97,12.53,2.91s6.49,4.63,8.52,8.06,3.04,7.33,3.04,11.69-1.01,8.26-3.04,11.69-4.87,6.12-8.52,8.06-7.83,2.92-12.53,2.92h-17.94v-45.34h0ZM252.03,215.94c4.19,0,7.88-.83,11.08-2.49,3.19-1.66,5.66-3.98,7.38-6.96,1.73-2.98,2.59-6.39,2.59-10.23s-.86-7.25-2.59-10.23-4.19-5.3-7.38-6.96c-3.2-1.66-6.89-2.49-11.08-2.49h-14.38v39.38h14.38v-.02Z"/>
    <path class="st0" d="M297.57,173.58h3.3v45.34h-3.3v-45.34Z"/>
    <path class="st0" d="M333.58,216.24c-3.58-2.01-6.4-4.76-8.45-8.26-2.05-3.5-3.08-7.41-3.08-11.72s1.02-8.23,3.08-11.72c2.05-3.5,4.87-6.25,8.45-8.26,3.58-2.01,7.6-3.01,12.05-3.01s8.46.99,12.05,2.98c3.58,1.99,6.4,4.73,8.45,8.23,2.05,3.5,3.08,7.43,3.08,11.79s-1.03,8.29-3.08,11.79-4.87,6.24-8.45,8.23c-3.59,1.99-7.6,2.98-12.05,2.98s-8.46-1-12.05-3.01v-.02ZM355.92,213.61c3.07-1.73,5.48-4.11,7.25-7.16,1.77-3.04,2.66-6.44,2.66-10.2s-.88-7.16-2.66-10.2c-1.77-3.04-4.19-5.43-7.25-7.16-3.07-1.73-6.5-2.59-10.3-2.59s-7.24.86-10.33,2.59c-3.09,1.73-5.52,4.11-7.29,7.16-1.77,3.04-2.66,6.44-2.66,10.2s.88,7.16,2.66,10.2c1.77,3.04,4.2,5.43,7.29,7.16s6.53,2.59,10.33,2.59,7.23-.86,10.3-2.59Z"/>
    <path class="st0" d="M416.74,173.58h3.3v45.34h-3.3v-45.34Z"/>
    <path class="st0" d="M482.48,173.58v45.34h-2.72l-30.89-39.38v39.38h-3.3v-45.34h2.79l30.83,39.38v-39.38h3.3-.01Z"/>
    <path class="st0" d="M550.88,218.92l-.06-38.8-18.98,32.77h-1.62l-18.98-32.64v38.67h-3.24v-45.34h2.79l20.27,35.04,20.27-35.04h2.72l.06,45.34h-3.24,0Z"/>
    <path class="st0" d="M586.83,216.24c-3.58-2.01-6.4-4.76-8.45-8.26s-3.08-7.41-3.08-11.72,1.02-8.23,3.08-11.72c2.05-3.5,4.87-6.25,8.45-8.26s7.6-3.01,12.05-3.01,8.46.99,12.05,2.98c3.58,1.99,6.4,4.73,8.45,8.23s3.08,7.43,3.08,11.79-1.03,8.29-3.08,11.79-4.87,6.24-8.45,8.23c-3.59,1.99-7.6,2.98-12.05,2.98s-8.46-1-12.05-3.01v-.02ZM609.17,213.61c3.07-1.73,5.48-4.11,7.25-7.16,1.77-3.04,2.66-6.44,2.66-10.2s-.88-7.16-2.66-10.2c-1.77-3.04-4.19-5.43-7.25-7.16s-6.5-2.59-10.3-2.59-7.24.86-10.33,2.59c-3.09,1.73-5.52,4.11-7.29,7.16-1.77,3.04-2.66,6.44-2.66,10.2s.88,7.16,2.66,10.2c1.77,3.04,4.2,5.43,7.29,7.16,3.09,1.73,6.53,2.59,10.33,2.59s7.23-.86,10.3-2.59Z"/>
    <path class="st0" d="M677.99,199.36c1.71,1.94,2.56,4.47,2.56,7.58,0,3.84-1.4,6.8-4.21,8.87s-6.97,3.11-12.5,3.11h-20.21v-45.34h18.91c4.92,0,8.75,1,11.5,3.01,2.74,2.01,4.11,4.87,4.11,8.58,0,2.59-.68,4.77-2.04,6.54-1.36,1.77-3.21,3.04-5.54,3.82,3.24.61,5.71,1.88,7.42,3.82h0ZM646.93,176.43v18.07h15.48c3.97,0,7.03-.77,9.16-2.3,2.14-1.53,3.21-3.79,3.21-6.77s-1.07-5.17-3.21-6.7-5.19-2.3-9.16-2.3h-15.48ZM673.84,213.77c2.27-1.53,3.4-3.9,3.4-7.09s-1.13-5.55-3.4-7.06-5.6-2.27-10.01-2.27h-16.9v18.72h16.9c4.41,0,7.74-.77,10.01-2.3h0Z"/>
    <path class="st0" d="M702.05,173.58h3.3v45.34h-3.3v-45.34Z"/>
    <path class="st0" d="M730.87,173.58h3.3v42.36h26.1v2.98h-29.41v-45.34h.01Z"/>
    <path class="st0" d="M778.48,173.58h3.3v45.34h-3.3v-45.34Z"/>
    <path class="st0" d="M835.35,206.16h-26.3l-5.76,12.76h-3.56l20.86-45.34h3.3l20.86,45.34h-3.56l-5.83-12.76h0ZM834.12,203.38l-11.92-26.17-11.85,26.17h23.77,0Z"/>
    <path class="st0" d="M894.16,218.92l-10.82-15.16c-1.6.22-3.07.32-4.41.32h-12.95v14.83h-3.3v-45.34h16.26c5.7,0,10.17,1.35,13.41,4.05s4.86,6.45,4.86,11.24c0,3.59-.92,6.6-2.75,9.04-1.84,2.44-4.46,4.16-7.87,5.15l11.33,15.87h-3.76ZM878.94,201.18c4.84,0,8.53-1.07,11.08-3.21s3.82-5.17,3.82-9.1-1.27-6.96-3.82-9.1c-2.55-2.14-6.24-3.21-11.08-3.21h-12.95v24.61h12.95Z"/>
    <path class="st0" d="M919.03,173.58h3.3v45.34h-3.3v-45.34Z"/>
    <path class="st0" d="M955.04,216.24c-3.58-2.01-6.4-4.76-8.45-8.26s-3.08-7.41-3.08-11.72,1.02-8.23,3.08-11.72c2.05-3.5,4.87-6.25,8.45-8.26s7.6-3.01,12.05-3.01,8.46.99,12.05,2.98c3.58,1.99,6.4,4.73,8.45,8.23s3.08,7.43,3.08,11.79-1.03,8.29-3.08,11.79-4.87,6.24-8.45,8.23c-3.59,1.99-7.6,2.98-12.05,2.98s-8.46-1-12.05-3.01v-.02ZM977.39,213.61c3.07-1.73,5.48-4.11,7.25-7.16,1.77-3.04,2.66-6.44,2.66-10.2s-.88-7.16-2.66-10.2c-1.77-3.04-4.19-5.43-7.25-7.16s-6.5-2.59-10.3-2.59-7.24.86-10.33,2.59c-3.09,1.73-5.52,4.11-7.29,7.16-1.77,3.04-2.66,6.44-2.66,10.2s.88,7.16,2.66,10.2c1.77,3.04,4.2,5.43,7.29,7.16,3.09,1.73,6.53,2.59,10.33,2.59s7.23-.86,10.3-2.59Z"/>
  </g>
  <g>
    <path class="st0" d="M74.61,23.19c38.52,0,63.97,23.71,63.97,58.39s-25.45,58.4-63.97,58.4H28.42V23.19h46.19ZM73.57,115.05c21.79,0,36.08-13.25,36.08-33.47s-14.29-33.47-36.08-33.47h-16.39v66.93h16.39Z"/>
    <path class="st0" d="M245.76,139.98h-90.99V23.19h90.47v24.75h-61.71v21.96h56.65v23.36h-56.65v21.96h62.23v24.75h0Z"/>
    <path class="st0" d="M349.97,139.98h-86.28V23.19h28.76v91.69h57.52v25.1Z"/>
    <path class="st0" d="M517.98,139.98h-23.71l-59.09-67.63v67.63h-28.76V23.19h23.88l59.09,69.72V23.19h28.59v116.79Z"/>
    <path class="st0" d="M658.79,81.76c0,33.99-27.37,60.83-62.23,60.83s-62.22-26.84-62.22-60.83,27.37-61.18,62.22-61.18,62.23,27.01,62.23,61.18ZM630.03,81.76c0-20.04-14.47-34.86-33.47-34.86s-33.47,14.81-33.47,34.86,14.47,34.51,33.47,34.51,33.47-14.64,33.47-34.51Z"/>
    <path class="st0" d="M747.31,139.98l-35.21-40.09h-8.37v40.09h-28.76V23.19h59.09c25.28,0,42.01,15.34,42.01,38.18,0,19.17-11.85,32.94-30.68,37.12l36.6,41.49h-34.69.01ZM730.93,75.83c10.28,0,16.9-5.58,16.9-14.12s-6.62-13.94-16.9-13.94h-27.2v28.07h27.2Z"/>
    <path class="st0" d="M848.39,48.29v91.69h-28.59V48.29h-37.82v-25.1h104.23v25.1h-37.82,0Z"/>
    <path class="st0" d="M990.78,139.98h-90.99V23.19h90.47v24.75h-61.71v21.96h56.65v23.36h-56.65v21.96h62.23v24.75h0Z"/>
  </g>
</svg>