<?xml version="1.0" encoding="UTF-8"?>
<svg id="Capa_1" xmlns="http://www.w3.org/2000/svg" version="1.1" viewBox="0 0 2403.32 634.04">
  <!-- Generator: Adobe Illustrator 30.0.0, SVG Export Plug-In . SVG Version: 2.1.1 Build 123)  -->
  <defs>
    <style>
      .st0 {
        fill: #d8b699;
      }

      .st1 {
        fill: #4a5b73;
      }

      .st2 {
        fill: #333;
      }
    </style>
  </defs>
  <g>
    <path d="M815.74,574.23v4.92h-51.7v-74.93h50.09v4.92h-44.63v29.54h39.92v4.82h-39.92v30.72h46.24Z"/>
    <path d="M855.72,576.86c-4.96-1.89-8.83-4.33-11.61-7.33l2.46-4.07c2.64,2.78,6.19,5.05,10.65,6.8,4.46,1.75,9.15,2.62,14.07,2.62,7.13,0,12.52-1.35,16.16-4.07,3.64-2.71,5.46-6.24,5.46-10.6,0-3.35-.96-6.03-2.89-8.03-1.93-2-4.32-3.53-7.17-4.6-2.85-1.07-6.71-2.18-11.56-3.32-5.49-1.36-9.9-2.68-13.22-3.96-3.32-1.28-6.14-3.26-8.46-5.94-2.32-2.68-3.48-6.26-3.48-10.76,0-3.64.96-6.97,2.89-10.01,1.93-3.03,4.87-5.44,8.83-7.22,3.96-1.78,8.9-2.67,14.82-2.67,4.14,0,8.21.61,12.2,1.82,4,1.21,7.46,2.85,10.38,4.92l-2.03,4.39c-3-2.07-6.3-3.64-9.9-4.71-3.6-1.07-7.16-1.61-10.65-1.61-6.92,0-12.17,1.39-15.73,4.18-3.57,2.78-5.35,6.39-5.35,10.81,0,3.36.97,6.03,2.89,8.03,1.93,2,4.32,3.53,7.17,4.6,2.85,1.07,6.74,2.21,11.67,3.42,5.49,1.36,9.88,2.68,13.17,3.96,3.28,1.28,6.08,3.23,8.4,5.83,2.32,2.61,3.48,6.12,3.48,10.54,0,3.64-.98,6.96-2.94,9.96-1.96,3-4.98,5.39-9.05,7.17-4.07,1.79-9.06,2.68-14.98,2.68-5.5,0-10.72-.95-15.68-2.84Z"/>
    <path d="M946.22,509.16h-26.97v-4.92h59.41v4.92h-26.97v70h-5.46v-70Z"/>
    <path d="M1013.92,571.45c-5.24-5.49-7.86-13.52-7.86-24.08v-43.14h5.46v42.92c0,9.21,2.1,16.09,6.31,20.66,4.21,4.57,10.31,6.85,18.3,6.85s13.98-2.28,18.2-6.85c4.21-4.57,6.31-11.45,6.31-20.66v-42.92h5.46v43.14c0,10.56-2.64,18.59-7.92,24.08-5.28,5.5-12.67,8.24-22.16,8.24s-16.86-2.75-22.1-8.24Z"/>
    <path d="M1107.63,504.23h29.65c7.78,0,14.68,1.61,20.71,4.82,6.03,3.21,10.72,7.65,14.07,13.33,3.35,5.67,5.03,12.11,5.03,19.32s-1.68,13.65-5.03,19.32c-3.36,5.67-8.05,10.12-14.07,13.33-6.03,3.21-12.93,4.82-20.71,4.82h-29.65v-74.93ZM1136.85,574.23c6.92,0,13.02-1.37,18.3-4.12,5.28-2.75,9.35-6.58,12.2-11.5,2.85-4.92,4.28-10.56,4.28-16.91s-1.43-11.99-4.28-16.91c-2.85-4.92-6.92-8.76-12.2-11.51-5.28-2.75-11.38-4.12-18.3-4.12h-23.76v65.08h23.76Z"/>
    <path d="M1212.09,504.23h5.46v74.93h-5.46v-74.93Z"/>
    <path d="M1271.61,574.72c-5.92-3.32-10.58-7.87-13.97-13.65-3.39-5.78-5.08-12.24-5.08-19.37s1.69-13.59,5.08-19.37c3.39-5.78,8.05-10.33,13.97-13.65,5.92-3.32,12.56-4.98,19.91-4.98s13.98,1.64,19.91,4.92c5.92,3.28,10.58,7.82,13.97,13.59,3.39,5.78,5.08,12.28,5.08,19.48s-1.7,13.7-5.08,19.48c-3.39,5.78-8.05,10.31-13.97,13.59-5.92,3.28-12.56,4.92-19.91,4.92s-13.99-1.66-19.91-4.98ZM1308.53,570.38c5.07-2.85,9.06-6.8,11.99-11.83,2.93-5.03,4.39-10.65,4.39-16.86s-1.46-11.83-4.39-16.86c-2.93-5.03-6.92-8.97-11.99-11.83-5.07-2.85-10.74-4.28-17.02-4.28s-11.97,1.43-17.07,4.28c-5.1,2.85-9.11,6.8-12.04,11.83-2.93,5.03-4.39,10.65-4.39,16.86s1.46,11.83,4.39,16.86,6.94,8.97,12.04,11.83c5.1,2.85,10.79,4.28,17.07,4.28s11.95-1.43,17.02-4.28Z"/>
    <path d="M1409.04,504.23h5.46v74.93h-5.46v-74.93Z"/>
    <path d="M1517.68,504.23v74.93h-4.49l-51.06-65.08v65.08h-5.46v-74.93h4.6l50.95,65.08v-65.08h5.46Z"/>
    <path d="M1630.71,579.16l-.11-64.11-31.36,54.16h-2.68l-31.36-53.95v63.9h-5.35v-74.93h4.6l33.5,57.91,33.5-57.91h4.5l.11,74.93h-5.35Z"/>
    <path d="M1690.12,574.72c-5.92-3.32-10.58-7.87-13.97-13.65-3.39-5.78-5.08-12.24-5.08-19.37s1.69-13.59,5.08-19.37c3.39-5.78,8.05-10.33,13.97-13.65,5.92-3.32,12.56-4.98,19.91-4.98s13.98,1.64,19.91,4.92c5.92,3.28,10.58,7.82,13.97,13.59,3.39,5.78,5.08,12.28,5.08,19.48s-1.7,13.7-5.08,19.48c-3.39,5.78-8.05,10.31-13.97,13.59-5.92,3.28-12.56,4.92-19.91,4.92s-13.99-1.66-19.91-4.98ZM1727.04,570.38c5.07-2.85,9.06-6.8,11.99-11.83,2.93-5.03,4.39-10.65,4.39-16.86s-1.46-11.83-4.39-16.86c-2.93-5.03-6.92-8.97-11.99-11.83-5.07-2.85-10.74-4.28-17.02-4.28s-11.97,1.43-17.07,4.28c-5.1,2.85-9.11,6.8-12.04,11.83-2.93,5.03-4.39,10.65-4.39,16.86s1.46,11.83,4.39,16.86,6.94,8.97,12.04,11.83c5.1,2.85,10.79,4.28,17.07,4.28s11.95-1.43,17.02-4.28Z"/>
    <path d="M1840.77,546.83c2.82,3.21,4.23,7.39,4.23,12.52,0,6.35-2.32,11.24-6.96,14.66-4.64,3.43-11.52,5.14-20.66,5.14h-33.4v-74.93h31.26c8.14,0,14.47,1.66,19,4.98,4.53,3.32,6.8,8.05,6.8,14.18,0,4.28-1.12,7.89-3.37,10.81-2.25,2.93-5.3,5.03-9.15,6.32,5.35,1,9.43,3.1,12.25,6.31ZM1789.45,508.94v29.86h25.58c6.56,0,11.61-1.27,15.14-3.8,3.53-2.53,5.3-6.26,5.3-11.19s-1.77-8.54-5.3-11.08c-3.53-2.53-8.58-3.8-15.14-3.8h-25.58ZM1833.92,570.65c3.75-2.53,5.62-6.44,5.62-11.72s-1.87-9.17-5.62-11.67c-3.75-2.5-9.26-3.75-16.54-3.75h-27.94v30.93h27.94c7.28,0,12.79-1.27,16.54-3.8Z"/>
    <path d="M1880.53,504.23h5.46v74.93h-5.46v-74.93Z"/>
    <path d="M1928.16,504.23h5.46v70h43.13v4.92h-48.6v-74.93Z"/>
    <path d="M2006.83,504.23h5.46v74.93h-5.46v-74.93Z"/>
    <path d="M2100.81,558.07h-43.46l-9.52,21.09h-5.89l34.47-74.93h5.46l34.47,74.93h-5.89l-9.63-21.09ZM2098.78,553.47l-19.69-43.24-19.59,43.24h39.28Z"/>
    <path d="M2198,579.16l-17.88-25.05c-2.64.36-5.07.53-7.28.53h-21.41v24.51h-5.46v-74.93h26.87c9.42,0,16.8,2.23,22.16,6.69,5.35,4.46,8.03,10.65,8.03,18.57,0,5.92-1.52,10.9-4.55,14.93-3.03,4.03-7.37,6.87-13.01,8.51l18.73,26.22h-6.21ZM2172.85,549.83c7.99,0,14.09-1.77,18.3-5.3,4.21-3.53,6.32-8.54,6.32-15.04s-2.11-11.51-6.32-15.04c-4.21-3.53-10.31-5.3-18.3-5.3h-21.41v40.67h21.41Z"/>
    <path d="M2239.1,504.23h5.46v74.93h-5.46v-74.93Z"/>
    <path d="M2298.61,574.72c-5.92-3.32-10.58-7.87-13.97-13.65-3.39-5.78-5.08-12.24-5.08-19.37s1.69-13.59,5.08-19.37c3.39-5.78,8.05-10.33,13.97-13.65,5.92-3.32,12.56-4.98,19.91-4.98s13.98,1.64,19.91,4.92c5.92,3.28,10.58,7.82,13.97,13.59,3.39,5.78,5.08,12.28,5.08,19.48s-1.7,13.7-5.08,19.48c-3.39,5.78-8.05,10.31-13.97,13.59-5.92,3.28-12.56,4.92-19.91,4.92s-13.99-1.66-19.91-4.98ZM2335.54,570.38c5.07-2.85,9.06-6.8,11.99-11.83,2.93-5.03,4.39-10.65,4.39-16.86s-1.46-11.83-4.39-16.86c-2.93-5.03-6.92-8.97-11.99-11.83-5.07-2.85-10.74-4.28-17.02-4.28s-11.97,1.43-17.07,4.28c-5.1,2.85-9.11,6.8-12.04,11.83-2.93,5.03-4.39,10.65-4.39,16.86s1.46,11.83,4.39,16.86,6.94,8.97,12.04,11.83c5.1,2.85,10.79,4.28,17.07,4.28s11.95-1.43,17.02-4.28Z"/>
  </g>
  <g>
    <path class="st2" d="M830.12,252.99c52.73,0,87.56,32.45,87.56,79.92s-34.83,79.93-87.56,79.93h-63.22v-159.86h63.22ZM828.69,378.73c29.82,0,49.38-18.13,49.38-45.81s-19.56-45.81-49.38-45.81h-22.43v91.62h22.43Z"/>
    <path class="st2" d="M1064.38,412.85h-124.54v-159.86h123.83v33.88h-84.46v30.06h77.55v31.98h-77.55v30.06h85.18v33.88Z"/>
    <path class="st2" d="M1207.02,412.85h-118.1v-159.86h39.36v125.5h78.73v34.36Z"/>
    <path class="st2" d="M1436.99,412.85h-32.45l-80.88-92.57v92.57h-39.36v-159.86h32.68l80.88,95.43v-95.43h39.13v159.86Z"/>
    <path class="st2" d="M1629.72,333.16c0,46.52-37.46,83.27-85.18,83.27s-85.17-36.74-85.17-83.27,37.46-83.74,85.17-83.74,85.18,36.98,85.18,83.74ZM1590.35,333.16c0-27.44-19.8-47.71-45.81-47.71s-45.81,20.28-45.81,47.71,19.81,47.24,45.81,47.24,45.81-20.03,45.81-47.24Z"/>
    <path class="st2" d="M1750.89,412.85l-48.2-54.87h-11.45v54.87h-39.36v-159.86h80.88c34.6,0,57.5,21,57.5,52.25,0,26.24-16.23,45.09-41.99,50.82l50.1,56.79h-47.48ZM1728.47,325.05c14.07,0,23.14-7.63,23.14-19.33s-9.07-19.09-23.14-19.09h-37.23v38.42h37.23Z"/>
    <path class="st2" d="M1889.25,287.35v125.5h-39.13v-125.5h-51.77v-34.36h142.67v34.36h-51.77Z"/>
    <path class="st2" d="M2084.14,412.85h-124.54v-159.86h123.83v33.88h-84.46v30.06h77.55v31.98h-77.55v30.06h85.18v33.88Z"/>
  </g>
  <path class="st0" d="M85.08,584.05h-23.73V57.31h0c152.01,0,275.23,123.23,275.23,275.23h0c0,138.9-112.6,251.51-251.51,251.51Z"/>
  <path class="st1" d="M611.82,584.05h-3.94c-149.83,0-271.3-121.46-271.3-271.3V57.31h275.23v526.74Z"/>
</svg>